<svg id="visual" viewBox="0 0 960 540" width="960" height="540" xmlns="http://www.w3.org/2000/svg" xmlns:xlink="http://www.w3.org/1999/xlink" version="1.1"><rect x="0" y="0" width="960" height="540" fill="#0b0021"></rect><defs><linearGradient id="grad1_0" x1="43.8%" y1="0%" x2="100%" y2="100%"><stop offset="14.444444444444446%" stop-color="#673ab7" stop-opacity="1"></stop><stop offset="85.55555555555554%" stop-color="#673ab7" stop-opacity="1"></stop></linearGradient></defs><defs><linearGradient id="grad1_1" x1="43.8%" y1="0%" x2="100%" y2="100%"><stop offset="14.444444444444446%" stop-color="#673ab7" stop-opacity="1"></stop><stop offset="85.55555555555554%" stop-color="#402a82" stop-opacity="1"></stop></linearGradient></defs><defs><linearGradient id="grad1_2" x1="43.8%" y1="0%" x2="100%" y2="100%"><stop offset="14.444444444444446%" stop-color="#211950" stop-opacity="1"></stop><stop offset="85.55555555555554%" stop-color="#402a82" stop-opacity="1"></stop></linearGradient></defs><defs><linearGradient id="grad1_3" x1="43.8%" y1="0%" x2="100%" y2="100%"><stop offset="14.444444444444446%" stop-color="#211950" stop-opacity="1"></stop><stop offset="85.55555555555554%" stop-color="#0b0021" stop-opacity="1"></stop></linearGradient></defs><defs><linearGradient id="grad2_0" x1="0%" y1="0%" x2="56.3%" y2="100%"><stop offset="14.444444444444446%" stop-color="#673ab7" stop-opacity="1"></stop><stop offset="85.55555555555554%" stop-color="#673ab7" stop-opacity="1"></stop></linearGradient></defs><defs><linearGradient id="grad2_1" x1="0%" y1="0%" x2="56.3%" y2="100%"><stop offset="14.444444444444446%" stop-color="#402a82" stop-opacity="1"></stop><stop offset="85.55555555555554%" stop-color="#673ab7" stop-opacity="1"></stop></linearGradient></defs><defs><linearGradient id="grad2_2" x1="0%" y1="0%" x2="56.3%" y2="100%"><stop offset="14.444444444444446%" stop-color="#402a82" stop-opacity="1"></stop><stop offset="85.55555555555554%" stop-color="#211950" stop-opacity="1"></stop></linearGradient></defs><defs><linearGradient id="grad2_3" x1="0%" y1="0%" x2="56.3%" y2="100%"><stop offset="14.444444444444446%" stop-color="#0b0021" stop-opacity="1"></stop><stop offset="85.55555555555554%" stop-color="#211950" stop-opacity="1"></stop></linearGradient></defs><g transform="translate(960, 0)"><path d="M0 378C-42.1 357.8 -84.3 337.6 -133.9 323.4C-183.6 309.2 -240.8 301 -267.3 267.3C-293.8 233.6 -289.7 174.3 -303 125.5C-316.4 76.7 -347.2 38.4 -378 0L0 0Z" fill="#151137"></path><path d="M0 283.5C-31.6 268.3 -63.2 253.2 -100.5 242.5C-137.7 231.9 -180.6 225.7 -200.5 200.5C-220.4 175.2 -217.3 130.7 -227.3 94.1C-237.3 57.5 -260.4 28.8 -283.5 0L0 0Z" fill="#302269"></path><path d="M0 189C-21.1 178.9 -42.1 168.8 -67 161.7C-91.8 154.6 -120.4 150.5 -133.6 133.6C-146.9 116.8 -144.8 87.2 -151.5 62.8C-158.2 38.4 -173.6 19.2 -189 0L0 0Z" fill="#53329d"></path><path d="M0 94.5C-10.5 89.4 -21.1 84.4 -33.5 80.8C-45.9 77.3 -60.2 75.2 -66.8 66.8C-73.5 58.4 -72.4 43.6 -75.8 31.4C-79.1 19.2 -86.8 9.6 -94.5 0L0 0Z" fill="#673ab7"></path></g><g transform="translate(0, 540)"><path d="M0 -378C44.1 -351.8 88.2 -325.7 124.8 -301.2C161.3 -276.7 190.1 -253.9 230.5 -230.5C270.9 -207.1 322.7 -183.2 349.2 -144.7C375.7 -106.1 376.9 -53.1 378 0L0 0Z" fill="#151137"></path><path d="M0 -283.5C33.1 -263.9 66.2 -244.3 93.6 -225.9C120.9 -207.5 142.6 -190.4 172.9 -172.9C203.2 -155.4 242 -137.4 261.9 -108.5C281.8 -79.6 282.6 -39.8 283.5 0L0 0Z" fill="#302269"></path><path d="M0 -189C22.1 -175.9 44.1 -162.8 62.4 -150.6C80.6 -138.4 95.1 -126.9 115.3 -115.3C135.4 -103.6 161.4 -91.6 174.6 -72.3C187.9 -53.1 188.4 -26.5 189 0L0 0Z" fill="#53329d"></path><path d="M0 -94.5C11 -88 22.1 -81.4 31.2 -75.3C40.3 -69.2 47.5 -63.5 57.6 -57.6C67.7 -51.8 80.7 -45.8 87.3 -36.2C93.9 -26.5 94.2 -13.3 94.5 0L0 0Z" fill="#673ab7"></path></g></svg>