<svg id="visual" viewBox="0 0 900 600" width="900" height="600" xmlns="http://www.w3.org/2000/svg" xmlns:xlink="http://www.w3.org/1999/xlink" version="1.1"><path d="M0 205L30 195C60 185 120 165 180 180C240 195 300 245 360 246C420 247 480 199 540 177C600 155 660 159 720 175C780 191 840 219 870 233L900 247L900 0L870 0C840 0 780 0 720 0C660 0 600 0 540 0C480 0 420 0 360 0C300 0 240 0 180 0C120 0 60 0 30 0L0 0Z" fill="#b97ffc"></path><path d="M0 427L30 417C60 407 120 387 180 386C240 385 300 403 360 415C420 427 480 433 540 422C600 411 660 383 720 382C780 381 840 407 870 420L900 433L900 245L870 231C840 217 780 189 720 173C660 157 600 153 540 175C480 197 420 245 360 244C300 243 240 193 180 178C120 163 60 183 30 193L0 203Z" fill="#a256f9"></path><path d="M0 523L30 516C60 509 120 495 180 490C240 485 300 489 360 498C420 507 480 521 540 518C600 515 660 495 720 490C780 485 840 495 870 500L900 505L900 431L870 418C840 405 780 379 720 380C660 381 600 409 540 420C480 431 420 425 360 413C300 401 240 383 180 384C120 385 60 405 30 415L0 425Z" fill="#8738e2"></path><path d="M0 601L30 601C60 601 120 601 180 601C240 601 300 601 360 601C420 601 480 601 540 601C600 601 660 601 720 601C780 601 840 601 870 601L900 601L900 503L870 498C840 493 780 483 720 488C660 493 600 513 540 516C480 519 420 505 360 496C300 487 240 483 180 488C120 493 60 507 30 514L0 521Z" fill="#6d29b9"></path></svg>